<svg width="20" height="18" viewBox="0 0 20 18" fill="none" xmlns="http://www.w3.org/2000/svg">
<path d="M11.2398 11.2206C11.2398 11.9321 10.6238 12.3767 10.0783 12.3767C9.53269 12.3767 8.87817 12.1556 8.87817 11.2206V10.7658H8.15945V11.2206C8.15945 12.2561 9.02057 13.0983 10.0783 13.0983C11.136 13.0983 11.9971 12.2561 11.9971 11.2206V10.7658H11.2398V11.2206Z" fill="#130B43"/>
<path d="M5.20355 9.02453C5.20355 8.34511 5.79281 7.79257 6.5168 7.79257C7.2403 7.79257 7.82957 8.34556 7.82957 9.02453H8.65677C8.65677 7.91672 7.69727 7.01582 6.5168 7.01582C5.33633 7.01582 4.37634 7.91672 4.37634 9.02453H5.20355Z" fill="#130B43"/>
<path d="M12.0201 9.02453C12.0201 8.34511 12.6094 7.79257 13.3329 7.79257C14.0569 7.79257 14.6462 8.34556 14.6462 9.02453H15.4734C15.4734 7.91672 14.5134 7.01582 13.3329 7.01582C12.1524 7.01582 11.1929 7.91672 11.1929 9.02453H12.0201Z" fill="#130B43"/>
<path fill-rule="evenodd" clip-rule="evenodd" d="M16.8081 6.38934V3.7193C16.8081 2.8195 16.6987 2.19519 16.4799 1.84636C16.2611 1.49752 15.8056 1.22856 15.1134 1.03948C14.9044 0.980793 14.7999 0.886251 14.7999 0.755845C14.7999 0.579798 15.035 0.491775 15.5052 0.491775H16.2203C16.9975 0.491775 17.5868 0.733022 17.9885 1.21552C18.3901 1.69802 18.5909 2.4022 18.5909 3.32808V6.14483C18.5909 6.79686 18.6611 7.29891 18.8015 7.65101C18.9419 8.0031 19.2015 8.33237 19.5803 8.63883C19.6913 8.73011 19.7468 8.80509 19.7468 8.86378C19.7468 8.92246 19.6913 8.99744 19.5803 9.08872C19.195 9.4017 18.9338 9.7326 18.7966 10.0814C18.6595 10.4303 18.5909 10.9307 18.5909 11.5827V14.3897C18.5909 15.3221 18.3885 16.0295 17.9836 16.512C17.5787 16.9945 16.9909 17.2358 16.2203 17.2358H15.5052C15.1983 17.2358 15.004 17.2211 14.9224 17.1918C14.8407 17.1624 14.7999 17.0891 14.7999 16.9717C14.7999 16.8087 14.9077 16.7011 15.1232 16.649L15.515 16.5609C16.3771 16.3653 16.8081 15.5144 16.8081 14.0083V11.3382C16.8081 10.3276 17.053 9.61361 17.5428 9.19631L17.7289 9.03982C17.8203 8.96158 17.866 8.9029 17.866 8.86378C17.866 8.81813 17.8203 8.75945 17.7289 8.68773L17.5428 8.53124C17.053 8.11394 16.8081 7.39998 16.8081 6.38934Z" fill="#130B43"/>
<path fill-rule="evenodd" clip-rule="evenodd" d="M3.22623 6.36632V3.69627C3.22623 2.79647 3.33562 2.17217 3.55439 1.82333C3.77317 1.4745 4.22867 1.20554 4.92091 1.01645C5.12989 0.957768 5.23438 0.863226 5.23438 0.73282C5.23438 0.556772 4.99928 0.46875 4.52908 0.46875H3.81398C3.03684 0.46875 2.44747 0.709997 2.04584 1.1925C1.64421 1.675 1.4434 2.37918 1.4434 3.30506V6.12181C1.4434 6.77384 1.37319 7.27589 1.23279 7.62798C1.09238 7.98008 0.832794 8.30935 0.454021 8.6158C0.343001 8.70709 0.287492 8.78207 0.287492 8.84075C0.287492 8.89943 0.343001 8.97442 0.454021 9.0657C0.839324 9.37867 1.10054 9.70957 1.23769 10.0584C1.37483 10.4072 1.4434 10.9077 1.4434 11.5597V14.3667C1.4434 15.2991 1.64584 16.0065 2.05074 16.489C2.45563 16.9715 3.04338 17.2128 3.81398 17.2128H4.52908C4.83601 17.2128 5.0303 17.1981 5.11193 17.1687C5.19356 17.1394 5.23438 17.066 5.23438 16.9487C5.23438 16.7857 5.12662 16.6781 4.91111 16.6259L4.51928 16.5379C3.65725 16.3423 3.22623 15.4914 3.22623 13.9852V11.3152C3.22623 10.3045 2.98134 9.59058 2.49155 9.17328L2.30543 9.0168C2.214 8.93855 2.16829 8.87987 2.16829 8.84075C2.16829 8.79511 2.214 8.73643 2.30543 8.6647L2.49155 8.50822C2.98134 8.09092 3.22623 7.37696 3.22623 6.36632Z" fill="#130B43"/>
</svg>
