<svg width="56" height="62" viewBox="0 0 56 62" fill="none" xmlns="http://www.w3.org/2000/svg">
<path fill-rule="evenodd" clip-rule="evenodd" d="M50.2128 15.2887L30.5 3.90748C28.953 3.01432 27.047 3.01432 25.5 3.90748L5.7872 15.2887C4.2402 16.1818 3.2872 17.8325 3.2872 19.6188V42.3812C3.2872 44.1675 4.2402 45.8182 5.7872 46.7113L25.5 58.0925C27.047 58.9857 28.953 58.9857 30.5 58.0925L50.2128 46.7113C51.7598 45.8182 52.7128 44.1675 52.7128 42.3812V19.6188C52.7128 17.8325 51.7598 16.1818 50.2128 15.2887ZM32 1.30941C29.5248 -0.119655 26.4752 -0.119656 24 1.30941L4.2872 12.6906C1.81199 14.1197 0.287201 16.7607 0.287201 19.6188V42.3812C0.287201 45.2393 1.81199 47.8803 4.2872 49.3094L24 60.6906C26.4752 62.1197 29.5248 62.1197 32 60.6906L51.7128 49.3094C54.188 47.8803 55.7128 45.2393 55.7128 42.3812V19.6188C55.7128 16.7607 54.188 14.1197 51.7128 12.6906L32 1.30941Z" fill="#130B43"/>
</svg>
