<svg width="101" height="96" viewBox="0 0 101 96" fill="none" xmlns="http://www.w3.org/2000/svg">
<path fill-rule="evenodd" clip-rule="evenodd" d="M11.1094 37.4474C11.9125 37.4474 12.5636 36.7964 12.5636 35.9932C12.5636 35.1901 11.9125 34.539 11.1094 34.539C10.3063 34.539 9.65518 35.1901 9.65518 35.9932C9.65518 36.7964 10.3063 37.4474 11.1094 37.4474ZM11.1094 40.3988C13.5425 40.3988 15.515 38.4264 15.515 35.9932C15.515 33.5601 13.5425 31.5877 11.1094 31.5877C8.67627 31.5877 6.70383 33.5601 6.70383 35.9932C6.70383 38.4264 8.67627 40.3988 11.1094 40.3988Z" fill="url(#paint0_linear_8_169)"/>
<path fill-rule="evenodd" clip-rule="evenodd" d="M27.869 86.0502C28.6722 86.0502 29.3232 85.3991 29.3232 84.596C29.3232 83.7929 28.6722 83.1418 27.869 83.1418C27.0659 83.1418 26.4148 83.7929 26.4148 84.596C26.4148 85.3991 27.0659 86.0502 27.869 86.0502ZM27.869 89.0016C30.3021 89.0016 32.2746 87.0291 32.2746 84.596C32.2746 82.1629 30.3021 80.1904 27.869 80.1904C25.4359 80.1904 23.4634 82.1629 23.4634 84.596C23.4634 87.0291 25.4359 89.0016 27.869 89.0016Z" fill="url(#paint1_linear_8_169)"/>
<path fill-rule="evenodd" clip-rule="evenodd" d="M90.4063 83.752C92.426 83.752 94.0633 82.1147 94.0633 80.095C94.0633 78.0752 92.426 76.438 90.4063 76.438C88.3866 76.438 86.7493 78.0752 86.7493 80.095C86.7493 82.1147 88.3866 83.752 90.4063 83.752ZM90.4063 86.7033C94.056 86.7033 97.0146 83.7446 97.0146 80.095C97.0146 76.4453 94.056 73.4866 90.4063 73.4866C86.7566 73.4866 83.7979 76.4453 83.7979 80.095C83.7979 83.7446 86.7566 86.7033 90.4063 86.7033Z" fill="url(#paint2_linear_8_169)"/>
<path fill-rule="evenodd" clip-rule="evenodd" d="M93.9129 14.8841L91.7771 16.1172V18.5833L93.9129 19.8164L96.0487 18.5833V16.1172L93.9129 14.8841ZM99 14.4132L93.9129 11.4762L88.8258 14.4132V20.2873L93.9129 23.2243L99 20.2873V14.4132Z" fill="url(#paint3_linear_8_169)"/>
<path fill-rule="evenodd" clip-rule="evenodd" d="M6.70383 59.4265L3.88931 61.0097V64.176L6.70383 65.7592L9.51835 64.176V61.0097L6.70383 59.4265ZM13.4077 58.822L6.70383 55.0511L0 58.822V66.3638L6.70383 70.1347L13.4077 66.3638V58.822Z" fill="url(#paint4_linear_8_169)"/>
<path fill-rule="evenodd" clip-rule="evenodd" d="M40.8233 5.88502V2.21371L44.0027 0.378052L47.1822 2.21371V5.88502L44.0027 7.72067L40.8233 5.88502Z" fill="url(#paint5_linear_8_169)"/>
<g filter="url(#filter0_d_8_169)">
<circle cx="53.6306" cy="46.6713" r="35.1951" fill="url(#paint6_linear_8_169)"/>
</g>
<path fill-rule="evenodd" clip-rule="evenodd" d="M53.4117 65.7322C63.7144 65.7322 72.0665 57.1603 72.0665 46.5864C72.0665 36.0125 63.7144 27.4407 53.4117 27.4407C43.1089 27.4407 34.7569 36.0125 34.7569 46.5864C34.7569 57.1603 43.1089 65.7322 53.4117 65.7322Z" stroke="white" stroke-width="1.5" stroke-linecap="round" stroke-linejoin="round"/>
<path fill-rule="evenodd" clip-rule="evenodd" d="M53.4117 47.8628C54.7854 47.8628 55.899 46.7199 55.899 45.31C55.899 43.9002 54.7854 42.7573 53.4117 42.7573C52.038 42.7573 50.9244 43.9002 50.9244 45.31C50.9244 46.7199 52.038 47.8628 53.4117 47.8628Z" stroke="white" stroke-width="1.5" stroke-linecap="round" stroke-linejoin="round"/>
<path fill-rule="evenodd" clip-rule="evenodd" d="M60.8736 55.5211C60.8736 56.9309 59.76 58.0739 58.3863 58.0739H48.4371C47.0634 58.0739 45.9498 56.9309 45.9498 55.5211C45.9498 54.1112 47.0634 52.9683 48.4371 52.9683H58.3863C59.76 52.9683 60.8736 54.1112 60.8736 55.5211Z" stroke="white" stroke-width="1.5" stroke-linecap="round" stroke-linejoin="round"/>
<path d="M48.7322 32.1174L49.5829 34.5153" stroke="white" stroke-width="1.5" stroke-linecap="round" stroke-linejoin="round"/>
<path d="M41.5638 38.2899L43.7178 39.5663" stroke="white" stroke-width="1.5" stroke-linecap="round" stroke-linejoin="round"/>
<path d="M39.9388 47.7488L42.3896 47.3046" stroke="white" stroke-width="1.5" stroke-linecap="round" stroke-linejoin="round"/>
<path d="M58.0911 32.1174L57.2405 34.5153" stroke="white" stroke-width="1.5" stroke-linecap="round" stroke-linejoin="round"/>
<path d="M65.2595 38.2899L55.5657 44.0337" stroke="white" stroke-width="1.5" stroke-linecap="round" stroke-linejoin="round"/>
<path d="M66.8846 47.7488L64.4338 47.3046" stroke="white" stroke-width="1.5" stroke-linecap="round" stroke-linejoin="round"/>
<defs>
<filter id="filter0_d_8_169" x="6.43552" y="1.47616" width="94.3902" height="94.3902" filterUnits="userSpaceOnUse" color-interpolation-filters="sRGB">
<feFlood flood-opacity="0" result="BackgroundImageFix"/>
<feColorMatrix in="SourceAlpha" type="matrix" values="0 0 0 0 0 0 0 0 0 0 0 0 0 0 0 0 0 0 127 0" result="hardAlpha"/>
<feOffset dy="2"/>
<feGaussianBlur stdDeviation="6"/>
<feColorMatrix type="matrix" values="0 0 0 0 0.309804 0 0 0 0 0.448157 0 0 0 0 0.803922 0 0 0 0.8 0"/>
<feBlend mode="normal" in2="BackgroundImageFix" result="effect1_dropShadow_8_169"/>
<feBlend mode="normal" in="SourceGraphic" in2="effect1_dropShadow_8_169" result="shape"/>
</filter>
<linearGradient id="paint0_linear_8_169" x1="11.1094" y1="31.5877" x2="11.1094" y2="40.3988" gradientUnits="userSpaceOnUse">
<stop stop-color="#2200FF"/>
<stop offset="1" stop-color="#9E00FF"/>
</linearGradient>
<linearGradient id="paint1_linear_8_169" x1="27.869" y1="80.1904" x2="27.869" y2="89.0016" gradientUnits="userSpaceOnUse">
<stop stop-color="#2200FF"/>
<stop offset="1" stop-color="#9E00FF"/>
</linearGradient>
<linearGradient id="paint2_linear_8_169" x1="90.4063" y1="73.4866" x2="90.4063" y2="86.7033" gradientUnits="userSpaceOnUse">
<stop stop-color="#2200FF"/>
<stop offset="1" stop-color="#9E00FF"/>
</linearGradient>
<linearGradient id="paint3_linear_8_169" x1="93.9129" y1="11.4762" x2="93.9129" y2="23.2243" gradientUnits="userSpaceOnUse">
<stop stop-color="#2200FF"/>
<stop offset="1" stop-color="#9E00FF"/>
</linearGradient>
<linearGradient id="paint4_linear_8_169" x1="6.70383" y1="55.0511" x2="6.70383" y2="70.1347" gradientUnits="userSpaceOnUse">
<stop stop-color="#2200FF"/>
<stop offset="1" stop-color="#9E00FF"/>
</linearGradient>
<linearGradient id="paint5_linear_8_169" x1="44.0027" y1="0.378052" x2="44.0027" y2="7.72067" gradientUnits="userSpaceOnUse">
<stop stop-color="#2200FF"/>
<stop offset="1" stop-color="#9E00FF"/>
</linearGradient>
<linearGradient id="paint6_linear_8_169" x1="53.6306" y1="11.4762" x2="53.6306" y2="81.8664" gradientUnits="userSpaceOnUse">
<stop stop-color="#2200FF"/>
<stop offset="1" stop-color="#9E00FF"/>
</linearGradient>
</defs>
</svg>
